<svg width="20" height="20" viewBox="0 0 20 20" fill="none" xmlns="http://www.w3.org/2000/svg">
<path fill-rule="evenodd" clip-rule="evenodd" d="M8.24608 9.35829C7.8815 9.35829 7.59323 9.64163 7.59323 9.99996C7.59323 10.35 7.8815 10.6416 8.24608 10.6416H13.3333V14.625C13.3333 16.6666 11.646 18.3333 9.56028 18.3333H5.43116C3.35388 18.3333 1.66663 16.675 1.66663 14.6333V5.37496C1.66663 3.32496 3.36236 1.66663 5.43964 1.66663H9.57724C11.646 1.66663 13.3333 3.32496 13.3333 5.36663V9.35829H8.24608ZM16.3585 7.1168L18.7918 9.5418C18.9168 9.6668 18.9835 9.82513 18.9835 10.0001C18.9835 10.1668 18.9168 10.3335 18.7918 10.4501L16.3585 12.8751C16.2335 13.0001 16.0668 13.0668 15.9085 13.0668C15.7418 13.0668 15.5752 13.0001 15.4502 12.8751C15.2002 12.6251 15.2002 12.2168 15.4502 11.9668L16.7835 10.6418H13.3335V9.35846H16.7835L15.4502 8.03346C15.2002 7.78346 15.2002 7.37513 15.4502 7.12513C15.7002 6.8668 16.1085 6.8668 16.3585 7.1168Z" fill="white"/>
</svg>
