<svg width="32" height="31" viewBox="0 0 32 31" fill="none" xmlns="http://www.w3.org/2000/svg">
<path d="M27.698 29.5734H4.66367C3.60354 29.5734 2.74414 28.714 2.74414 27.6539C2.74414 26.5938 3.60354 25.7344 4.66367 25.7344H27.698C28.7582 25.7344 29.6176 26.5938 29.6176 27.6539C29.6176 28.714 28.7582 29.5734 27.698 29.5734Z" stroke="#183051" stroke-width="1.6" stroke-linecap="round" stroke-linejoin="round"/>
<path d="M23.4065 21.9385C24.5487 18.7595 23.4791 15.2073 20.7714 13.1876C18.0637 11.1679 14.354 11.1551 11.6324 13.1561C8.91086 15.1571 7.81675 18.7018 8.93704 21.8886" stroke="#183051" stroke-width="1.6" stroke-linecap="round" stroke-linejoin="round"/>
<path d="M12.3418 5.26094C12.3418 7.38119 14.0606 9.1 16.1809 9.1C18.3011 9.1 20.0199 7.38119 20.0199 5.26094C20.0199 3.14068 18.3011 1.42188 16.1809 1.42188C14.0606 1.42188 12.3418 3.14068 12.3418 5.26094Z" stroke="#183051" stroke-width="1.6" stroke-linecap="round" stroke-linejoin="round"/>
<path d="M12.3418 5.25781H20.0199" stroke="#183051" stroke-width="1.6" stroke-linecap="round" stroke-linejoin="round"/>
<path d="M16.1816 9.10156V11.6609" stroke="#183051" stroke-width="1.6" stroke-linecap="round" stroke-linejoin="round"/>
<path d="M12.6595 12.5146C9.03602 10.6523 4.58886 11.9442 2.52724 15.4581C0.465615 18.972 1.50738 23.4844 4.90075 25.7389H27.4616C30.8557 23.4841 31.8973 18.9708 29.8347 15.4567C27.7721 11.9426 23.3236 10.6518 19.7003 12.5159" stroke="#183051" stroke-width="1.6" stroke-linecap="round" stroke-linejoin="round"/>
</svg>
