<svg width="31" height="29" viewBox="0 0 31 29" fill="none" xmlns="http://www.w3.org/2000/svg">
<path fill-rule="evenodd" clip-rule="evenodd" d="M15.1817 0.28125C14.3805 0.28125 13.5976 0.52127 12.934 0.970363C12.2704 1.41946 11.7566 2.05703 11.4587 2.80088C11.1608 3.54473 11.0926 4.36075 11.2629 5.14373C11.4331 5.9267 11.834 6.64073 12.4138 7.19375L12.1222 7.71292L9.50153 12.4131C9.33404 12.7288 9.15254 13.0368 8.95757 13.3363C8.93061 13.3753 8.90139 13.4128 8.87007 13.4485C8.82958 13.4226 8.79063 13.3944 8.75341 13.364C8.48346 13.1292 8.22411 12.8825 7.97611 12.6246L7.85945 12.5094C7.44597 12.0885 7.02195 11.6781 6.58778 11.2785C6.81688 10.6679 6.8588 10.0028 6.7082 9.36826C6.55759 8.73368 6.22129 8.15838 5.74224 7.7158C5.26318 7.27323 4.66309 6.98345 4.0186 6.88348C3.3741 6.7835 2.71443 6.87786 2.12381 7.15451C1.53318 7.43116 1.0384 7.87754 0.70263 8.43667C0.366857 8.99581 0.205329 9.64232 0.238665 10.2937C0.272002 10.945 0.498692 11.5717 0.889794 12.0936C1.2809 12.6155 1.81867 13.0091 2.43445 13.224L2.44903 13.4763C2.48403 13.9502 2.54528 14.5175 2.61382 15.165L2.88361 17.669L3.01049 18.8794C3.17382 20.4588 3.33132 21.9681 3.56466 23.2412C3.71049 24.0462 3.89716 24.8046 4.15382 25.4623C4.40903 26.1156 4.76195 26.7383 5.28257 27.205C6.20132 28.0275 7.30966 28.3863 8.63091 28.5554C9.90695 28.7188 11.5155 28.7188 13.5192 28.7188H16.8442C18.848 28.7188 20.4565 28.7188 21.7326 28.5554C23.0553 28.3863 24.1622 28.0275 25.0809 27.205C25.6015 26.7383 25.9544 26.1156 26.2097 25.4623C26.4663 24.8046 26.653 24.0462 26.8003 23.2412C27.0336 21.9681 27.1897 20.4587 27.353 18.8808L27.4799 17.6704L27.7497 15.1665C27.8182 14.5175 27.8809 13.9502 27.913 13.4763L27.929 13.224C28.5448 13.0091 29.0826 12.6155 29.4737 12.0936C29.8648 11.5717 30.0915 10.945 30.1248 10.2937C30.1581 9.64232 29.9966 8.99581 29.6608 8.43667C29.3251 7.87754 28.8303 7.43116 28.2397 7.15451C27.649 6.87786 26.9894 6.7835 26.3449 6.88348C25.7004 6.98345 25.1003 7.27323 24.6212 7.7158C24.1422 8.15838 23.8059 8.73368 23.6553 9.36826C23.5047 10.0028 23.5466 10.6679 23.7757 11.2785C23.3907 11.6242 22.9678 12.0456 22.5026 12.5094L22.3874 12.6246C22.0111 13.0008 21.7865 13.2225 21.6101 13.364C21.5729 13.3944 21.5339 13.4226 21.4934 13.4485C21.4621 13.4128 21.4329 13.3753 21.4059 13.3363C21.2109 13.0368 21.0294 12.7288 20.8619 12.4131L18.2413 7.71292L17.9497 7.19375C18.5295 6.64073 18.9304 5.9267 19.1006 5.14373C19.2708 4.36075 19.2026 3.54473 18.9048 2.80088C18.6069 2.05703 18.0931 1.41946 17.4295 0.970363C16.7659 0.52127 15.983 0.28125 15.1817 0.28125ZM13.3588 4.29167C13.3588 3.8082 13.5509 3.34453 13.8927 3.00267C14.2346 2.66081 14.6983 2.46875 15.1817 2.46875C15.6652 2.46875 16.1289 2.66081 16.4707 3.00267C16.8126 3.34453 17.0047 3.8082 17.0047 4.29167C17.0047 4.77513 16.8126 5.2388 16.4707 5.58066C16.1289 5.92253 15.6652 6.11458 15.1817 6.11458C14.6983 6.11458 14.2346 5.92253 13.8927 5.58066C13.5509 5.2388 13.3588 4.77513 13.3588 4.29167ZM14.0224 8.79792C14.139 8.58646 14.2484 8.3925 14.349 8.21458C14.8981 8.33086 15.4654 8.33086 16.0144 8.21458C16.1165 8.3925 16.223 8.58646 16.3411 8.79792L18.9763 13.5229C19.2024 13.9283 19.4109 14.3031 19.6151 14.5933C19.8324 14.901 20.1269 15.2423 20.5805 15.4421C20.9713 15.6142 21.403 15.674 21.8259 15.6156C22.3159 15.5471 22.6936 15.3006 22.9867 15.0644C23.2609 14.8413 23.5657 14.5379 23.8967 14.2098L23.9317 14.1748C24.4786 13.6294 24.8797 13.2342 25.1859 12.9542C25.3609 13.0562 25.5447 13.1438 25.7386 13.2138L25.7313 13.3217C25.7022 13.7504 25.6438 14.2798 25.5709 14.9492L25.3055 17.4356L25.1713 18.7044C25.0692 19.6815 24.9759 20.5929 24.8665 21.4271H5.49695C5.38297 20.5204 5.28088 19.6123 5.1907 18.7029C5.14986 18.2917 5.10466 17.8688 5.05945 17.4342L4.79111 14.9492C4.72537 14.3717 4.66995 13.7932 4.62486 13.2138C4.81882 13.1438 5.00403 13.0562 5.17903 12.9542C5.48528 13.2342 5.88486 13.6294 6.4332 14.1748L6.46674 14.2098C6.79778 14.5379 7.10257 14.8413 7.37674 15.0644C7.66986 15.3006 8.04757 15.5471 8.53757 15.6156C8.96049 15.674 9.39216 15.6142 9.78299 15.4406C10.2351 15.2423 10.5326 14.901 10.7484 14.5933C10.9789 14.2468 11.192 13.8891 11.3872 13.5215L14.0224 8.79792ZM5.87466 23.6146C5.96945 24.0171 6.07445 24.3671 6.19111 24.6646C6.3807 25.1458 6.57174 25.4229 6.74091 25.5746C7.2032 25.9873 7.81861 26.2454 8.90945 26.3854C10.0294 26.5298 11.498 26.5312 13.5951 26.5312H16.7684C18.8655 26.5312 20.334 26.5298 21.454 26.3854C22.5449 26.2469 23.1603 25.9873 23.6226 25.5746C23.7917 25.4229 23.9842 25.1458 24.1724 24.666C24.289 24.3671 24.394 24.0171 24.4888 23.6146H5.87466ZM2.42132 10.125C2.42134 9.90924 2.48517 9.6983 2.60478 9.51873C2.72439 9.33916 2.89444 9.19898 3.09354 9.11582C3.29263 9.03267 3.51187 9.01026 3.72367 9.0514C3.93547 9.09256 4.13037 9.19543 4.28384 9.34708C4.43732 9.49874 4.54251 9.69239 4.58618 9.90369C4.62986 10.115 4.61006 10.3345 4.52928 10.5345C4.44851 10.7346 4.31037 10.9063 4.13223 11.0281C3.9541 11.1498 3.74394 11.2162 3.5282 11.2188H3.51507C3.22499 11.2188 2.94679 11.1035 2.74167 10.8984C2.53656 10.6933 2.42132 10.4151 2.42132 10.125ZM25.7547 10.125C25.7547 9.90868 25.8188 9.69721 25.939 9.51735C26.0592 9.33748 26.23 9.19729 26.4298 9.11451C26.6297 9.03172 26.8496 9.01006 27.0618 9.05227C27.274 9.09447 27.4688 9.19864 27.6218 9.3516C27.7748 9.50457 27.8789 9.69945 27.9211 9.91162C27.9633 10.1238 27.9417 10.3437 27.8589 10.5436C27.7761 10.7434 27.6359 10.9142 27.4561 11.0344C27.2762 11.1546 27.0647 11.2188 26.8484 11.2188H26.8353C26.5471 11.2164 26.2716 11.1 26.0691 10.8951C25.8665 10.6901 25.7535 10.4132 25.7547 10.125Z" fill="#183051"/>
</svg>
