<svg width="36" height="35" viewBox="0 0 36 35" fill="none" xmlns="http://www.w3.org/2000/svg">
<path fill-rule="evenodd" clip-rule="evenodd" d="M18.196 7.6764C19.225 8.50334 19.8995 9.70088 20.1634 11.1049C20.1764 11.1737 20.1829 11.2437 20.1829 11.3137V15.3316L23.2675 15.3323C26.0046 15.3323 28.3225 17.2794 28.8644 20.0249C28.8679 20.0426 28.871 20.0604 28.8736 20.0783C29.2876 22.8746 27.5096 25.5141 24.9003 26.2267C24.4026 26.3851 23.8213 26.3841 23.4465 26.3834C23.4227 26.3833 23.3997 26.3833 23.3776 26.3833H20.293V29.6204C20.293 29.6355 20.2931 29.6516 20.2931 29.6687C20.2937 29.9695 20.2949 30.5685 20.13 31.0786C19.4497 33.2717 17.3836 35.2447 14.3718 34.9755C11.9861 34.8242 9.95865 32.8852 9.52381 30.54C9.32001 29.775 9.35361 29.0146 9.37601 28.5075C9.38181 28.3764 9.38685 28.2622 9.38685 28.1693V26.2727L6.30227 26.2717C3.59395 26.2717 1.37884 24.4688 0.821955 21.8335C0.138801 19.013 2.02401 16.0002 4.87303 15.377C5.10835 15.2866 5.3353 15.2544 5.50024 15.2392C5.70237 15.2206 5.91083 15.2206 6.06326 15.2207C6.06958 15.2207 6.07581 15.2207 6.08194 15.2207H9.27669V11.9835C9.27669 11.9649 9.27715 11.9463 9.27806 11.9278C9.41282 9.19688 11.5605 6.65904 14.3994 6.51521L14.4044 6.51495C15.8507 6.44834 17.166 6.84871 18.196 7.6764ZM14.507 8.74507C15.483 8.70065 16.2599 8.96997 16.8269 9.42558C17.3754 9.86637 17.7923 10.5338 17.9796 11.4249V15.4433C17.9796 15.9566 18.0829 16.596 18.5847 17.0621C19.0651 17.5083 19.6701 17.5648 20.0727 17.5648H23.2675C24.9281 17.5648 26.3497 18.731 26.6985 20.436C26.9287 22.0842 25.861 23.6621 24.3091 24.0759C24.2862 24.082 24.2635 24.0888 24.2411 24.0964C24.1172 24.1383 23.8807 24.1508 23.3776 24.1508H20.293C19.7702 24.1508 19.091 24.2384 18.6023 24.775C18.1331 25.29 18.0898 25.955 18.0898 26.3833V29.6204C18.0898 30.0075 18.0784 30.2553 18.0361 30.3837L18.0298 30.4038C17.6069 31.775 16.3761 32.9184 14.5541 32.7506C14.5424 32.7495 14.5308 32.7486 14.5191 32.7479C13.1858 32.6684 11.9307 31.5155 11.6835 30.0962C11.6769 30.0582 11.6684 30.0206 11.6579 29.9835C11.5438 29.5789 11.5558 29.2839 11.5735 28.8453C11.5813 28.6542 11.5901 28.4359 11.5901 28.1693V26.16C11.5901 24.9854 10.6562 24.0391 9.49701 24.0391H6.30227C4.61097 24.0391 3.30523 22.9489 2.97373 21.3534C2.9709 21.3397 2.96781 21.3262 2.96447 21.3126C2.57002 19.7139 3.70353 17.8738 5.40676 17.5451C5.48964 17.5291 5.57037 17.5035 5.64738 17.4689C5.65838 17.4671 5.67543 17.4648 5.69972 17.4626C5.79215 17.454 5.90525 17.4532 6.08194 17.4532H9.27669C9.70947 17.4532 10.4214 17.4254 10.937 16.903C11.4525 16.3806 11.48 15.6592 11.48 15.2207V12.0134C11.5778 10.2912 12.9481 8.82548 14.507 8.74507Z" fill="#183051"/>
<path fill-rule="evenodd" clip-rule="evenodd" d="M27.7579 0.0511561C29.5637 -0.26592 31.2178 0.922549 31.5441 2.74089C31.5559 2.80677 31.5618 2.8736 31.5618 2.94057V4.27996L32.6635 4.28008C33.4679 4.28008 34.2567 4.56695 34.8333 5.15121C35.3887 5.71406 35.6808 6.4872 35.6441 7.3455C35.8907 8.99209 34.8826 10.4133 33.3906 10.9052C32.9661 11.0919 32.5627 11.0902 32.3669 11.0894C32.3548 11.0893 32.3435 11.0893 32.333 11.0893H31.3415V12.2055C31.3415 12.5014 31.2654 12.7306 31.2342 12.8245C31.2327 12.8292 31.2312 12.8336 31.2299 12.8376L31.2287 12.8413C31.2242 12.9064 31.2141 12.971 31.1985 13.0344C30.8539 14.431 29.5112 15.5803 27.7644 15.4422C26.2377 15.4133 25.1593 14.1101 24.8681 12.7826C24.8507 12.7031 24.8419 12.6219 24.8419 12.5404V11.0893H23.9606C22.2967 11.0893 20.9982 9.89605 20.6793 8.30559C20.3353 6.70623 21.3519 5.09131 22.9021 4.57615C23.3269 4.38905 23.7307 4.39077 23.9266 4.39161C23.9388 4.39166 23.9501 4.39171 23.9606 4.39171H25.0622V3.16382C25.0622 2.36686 25.4395 1.63958 25.8913 1.12456C26.3375 0.615881 26.9931 0.158191 27.7579 0.0511561ZM25.5251 11.0904C25.5251 11.0904 25.5176 11.0906 25.505 11.0893C25.5192 11.0894 25.5251 11.0904 25.5251 11.0904ZM24.8419 10.4174C24.8405 10.4046 24.8408 10.397 24.8408 10.397C24.8408 10.397 24.8418 10.4029 24.8419 10.4174ZM30.9994 4.27978C30.9994 4.27978 31.0011 4.27978 31.0042 4.28001L30.9994 4.27978ZM29.3586 3.05693C29.2154 2.47989 28.7029 2.14606 28.1235 2.25281C28.1035 2.2565 28.0833 2.25963 28.0631 2.26219C27.9603 2.27522 27.7466 2.37003 27.538 2.60777C27.3288 2.84623 27.2655 3.06777 27.2655 3.16382V4.50334C27.2655 5.67796 26.3316 6.62424 25.1724 6.62424H23.9606C23.9026 6.62424 23.8647 6.62433 23.8297 6.62543C23.7993 6.6264 23.7808 6.62792 23.7694 6.62924C23.7199 6.65292 23.6686 6.67282 23.6161 6.68878C23.0124 6.87232 22.7497 7.45487 22.8327 7.83322L22.8375 7.85646C22.9632 8.49288 23.4251 8.85676 23.9606 8.85676H25.5029C25.7291 8.85676 26.2305 8.88057 26.6261 9.28138C27.0216 9.68219 27.0451 10.1902 27.0451 10.4195V12.4027C27.2123 12.9908 27.6191 13.2102 27.8163 13.2102C27.8496 13.2102 27.8829 13.2117 27.916 13.2148C28.5274 13.2711 28.9157 12.9199 29.0392 12.5659C29.0616 12.367 29.1116 12.2164 29.1354 12.1447C29.1364 12.1417 29.1382 12.136 29.1382 12.136V10.9777C29.1382 9.80303 30.0721 8.85676 31.2314 8.85676H32.333C32.3909 8.85676 32.4288 8.85667 32.4638 8.85556C32.4942 8.8546 32.5128 8.85308 32.5241 8.85176C32.5737 8.82808 32.6249 8.80817 32.6774 8.79221C33.2966 8.60398 33.5526 8.11408 33.456 7.62454C33.4352 7.51925 33.4296 7.41148 33.4392 7.30456C33.4666 6.99912 33.3738 6.82963 33.2753 6.72984C33.1634 6.61643 32.9607 6.51261 32.6635 6.51261H31.011C30.7432 6.51261 30.3215 6.47184 29.9477 6.15621C29.6116 5.87234 29.4786 5.49574 29.4151 5.30283C29.3777 5.18901 29.3586 5.06982 29.3586 4.94984V3.05693Z" fill="#183051"/>
</svg>
