<svg width="30" height="28" viewBox="0 0 30 28" fill="none" xmlns="http://www.w3.org/2000/svg">
<path d="M15.3278 23.0521L15.182 23.1979L15.0215 23.0521C8.09447 16.7667 3.5153 12.6104 3.5153 8.39583C3.5153 5.47917 5.7028 3.29167 8.61947 3.29167C10.8653 3.29167 13.0528 4.75 13.8257 6.73333H16.5382C17.3111 4.75 19.4986 3.29167 21.7445 3.29167C24.6611 3.29167 26.8486 5.47917 26.8486 8.39583C26.8486 12.6104 22.2695 16.7667 15.3278 23.0521ZM21.7445 0.375C19.207 0.375 16.7715 1.55625 15.182 3.40833C13.5924 1.55625 11.157 0.375 8.61947 0.375C4.1278 0.375 0.598633 3.88958 0.598633 8.39583C0.598633 13.8937 5.55697 18.4 13.0674 25.2104L15.182 27.1354L17.2965 25.2104C24.807 18.4 29.7653 13.8937 29.7653 8.39583C29.7653 3.88958 26.2361 0.375 21.7445 0.375Z" fill="#183051"/>
</svg>
