<svg width="30" height="30" viewBox="0 0 30 30" fill="none" xmlns="http://www.w3.org/2000/svg">
<path d="M20.2375 2.5H9.7625C5.2125 2.5 2.5 5.2125 2.5 9.7625V20.2375C2.5 23.75 4.1125 26.1625 6.95 27.075C7.775 27.3625 8.725 27.5 9.7625 27.5H20.2375C21.275 27.5 22.225 27.3625 23.05 27.075C25.8875 26.1625 27.5 23.75 27.5 20.2375V9.7625C27.5 5.2125 24.7875 2.5 20.2375 2.5ZM25.625 20.2375C25.625 22.9125 24.575 24.6 22.4625 25.3C21.25 22.9125 18.375 21.2125 15 21.2125C11.625 21.2125 8.7625 22.9 7.5375 25.3H7.525C5.4375 24.625 4.375 22.925 4.375 20.25V9.7625C4.375 6.2375 6.2375 4.375 9.7625 4.375H20.2375C23.7625 4.375 25.625 6.2375 25.625 9.7625V20.2375Z" fill="white"/>
<path d="M15 10C12.525 10 10.525 12 10.525 14.475C10.525 16.95 12.525 18.9625 15 18.9625C17.475 18.9625 19.475 16.95 19.475 14.475C19.475 12 17.475 10 15 10Z" fill="white"/>
</svg>
