<svg width="36" height="40" viewBox="0 0 36 40" fill="none" xmlns="http://www.w3.org/2000/svg">
<path d="M31.5217 0H25.3386C23.4731 0 21.9124 1.34414 21.5534 3.125H18.237V2.59961C18.237 1.16625 17.0837 0 15.6662 0H13.7C12.2824 0 11.1292 1.16625 11.1292 2.59961V6.25H10.6656C10.239 6.25 9.89301 6.59984 9.89301 7.03125V11.0859C9.89301 11.0962 9.89417 11.1061 9.89456 11.1162C4.85148 12.8805 1.04655 17.3498 0.184958 22.8002C0.18434 22.8037 0.183799 22.8073 0.183258 22.8108C0.0631206 23.5737 0 24.3557 0 25.1523C0 33.3394 6.58679 40 14.6831 40C22.7793 40 29.3661 33.3394 29.3661 25.1523C29.3661 21.9126 28.3527 18.8341 26.4351 16.2498C26.1791 15.9048 25.6949 15.8348 25.3534 16.0938C25.0121 16.3527 24.943 16.8425 25.1991 17.1877C26.3934 18.7972 27.1951 20.6214 27.5723 22.5595C26.4374 23.3392 21.9032 25.8691 15.0401 22.2528C10.4424 19.8299 6.74471 19.9656 4.45236 20.5063C3.50988 20.7284 2.72114 21.0345 2.09936 21.3333C3.72581 15.8636 8.7512 11.8672 14.6831 11.8672C17.157 11.8672 19.5668 12.5659 21.6518 13.888C22.0134 14.1171 22.4902 14.0066 22.7168 13.6411C22.9435 13.2755 22.8342 12.7934 22.4727 12.5641C21.5257 11.9637 20.5188 11.4782 19.4717 11.1134C19.472 11.1042 19.4731 11.0952 19.4731 11.0859V7.03125C19.4731 6.59984 19.1272 6.25 18.7005 6.25H18.237V4.6875H21.5534C21.9124 6.46836 23.4731 7.8125 25.3386 7.8125H31.5217C33.6517 7.8125 35.3846 6.06016 35.3846 3.90625C35.3846 1.75234 33.6517 0 31.5217 0ZM4.88632 22.0086C7.82881 21.3399 11.0046 21.8883 14.3261 23.6384C17.328 25.2203 19.938 25.7115 22.0221 25.7115C23.1304 25.7114 24.0903 25.5725 24.8807 25.3847C26.1379 25.0861 27.1183 24.6363 27.7912 24.2554C27.8106 24.5526 27.821 24.8516 27.821 25.1523C27.821 32.4777 21.9273 38.4374 14.6831 38.4374C7.4388 38.4374 1.54518 32.4778 1.54518 25.1523C1.54518 24.5511 1.58566 23.9593 1.66254 23.3791C2.11164 23.0663 3.22641 22.3859 4.88632 22.0086ZM12.6743 2.59961C12.6743 2.02773 13.1344 1.5625 13.7 1.5625H15.6662C16.2316 1.5625 16.6917 2.02773 16.6917 2.59961V6.25H12.6743V2.59961ZM17.9279 10.6702C16.8697 10.4286 15.782 10.3047 14.6831 10.3047C13.5683 10.3047 12.4824 10.4316 11.4382 10.6708V7.8125H17.9279V10.6702ZM31.5217 6.25H25.3386C24.0606 6.25 23.0209 5.19859 23.0209 3.90625C23.0209 2.61391 24.0606 1.5625 25.3386 1.5625H31.5217C32.7997 1.5625 33.8394 2.61391 33.8394 3.90625C33.8394 5.19859 32.7997 6.25 31.5217 6.25Z" fill="#4F4F4F"/>
<path d="M24.3659 14.053C24.3654 14.0524 24.3634 14.0507 24.3617 14.0491C24.0531 13.7643 23.5725 13.781 23.2847 14.0876C22.9952 14.3959 23.0104 14.8805 23.3185 15.17C23.322 15.1734 23.3313 15.1819 23.3353 15.1854C23.4818 15.3187 23.6661 15.3846 23.8499 15.3846C24.0577 15.3846 24.2648 15.3004 24.4158 15.1347C24.7006 14.8222 24.6783 14.3379 24.3659 14.053Z" fill="#4F4F4F"/>
<path d="M22.8511 32.5331C22.7081 32.39 22.5096 32.3077 22.3073 32.3077C22.105 32.3077 21.9065 32.39 21.7635 32.5331C21.6204 32.6763 21.5381 32.8738 21.5381 33.077C21.5381 33.2793 21.6203 33.4777 21.7635 33.6207C21.9065 33.7639 22.105 33.8462 22.3073 33.8462C22.5096 33.8462 22.7081 33.7639 22.8511 33.6207C22.9942 33.4777 23.0765 33.2793 23.0765 33.077C23.0765 32.8738 22.9942 32.6762 22.8511 32.5331Z" fill="#4F4F4F"/>
<path d="M22.8511 27.9176C22.7081 27.7746 22.5096 27.6923 22.3073 27.6923C22.1042 27.6923 21.9065 27.7745 21.7635 27.9176C21.6204 28.0608 21.5381 28.2592 21.5381 28.4615C21.5381 28.6638 21.6203 28.8623 21.7635 29.0053C21.9065 29.1484 22.105 29.2307 22.3073 29.2307C22.5096 29.2307 22.7081 29.1484 22.8511 29.0053C22.9942 28.8623 23.0765 28.6638 23.0765 28.4615C23.0765 28.2592 22.9942 28.0607 22.8511 27.9176Z" fill="#4F4F4F"/>
<path d="M22.8511 20.2254C22.7081 20.0823 22.5096 20 22.3073 20C22.105 20 21.9065 20.0822 21.7635 20.2254C21.6204 20.3685 21.5381 20.5669 21.5381 20.7692C21.5381 20.9715 21.6203 21.17 21.7635 21.313C21.9065 21.4561 22.105 21.5385 22.3073 21.5385C22.5096 21.5385 22.7081 21.4562 22.8511 21.313C22.9942 21.17 23.0765 20.9715 23.0765 20.7692C23.0765 20.5669 22.9942 20.3685 22.8511 20.2254Z" fill="#4F4F4F"/>
<path d="M19.775 15.61C19.6319 15.4669 19.4335 15.3846 19.2311 15.3846C19.0288 15.3846 18.8305 15.4669 18.6873 15.61C18.5443 15.7531 18.4619 15.9515 18.4619 16.1539C18.4619 16.3562 18.5442 16.5546 18.6873 16.6976C18.8304 16.8407 19.0288 16.9231 19.2311 16.9231C19.4335 16.9231 19.6319 16.8408 19.775 16.6976C19.918 16.5546 20.0004 16.3562 20.0004 16.1539C20.0004 15.9515 19.9181 15.7531 19.775 15.61Z" fill="#4F4F4F"/>
<path d="M8.95482 33.9091C7.42231 32.5985 6.29528 30.5941 5.78139 28.2651C5.68798 27.8414 5.35656 27.5999 5.04145 27.7255C4.72622 27.851 4.54649 28.2964 4.63996 28.7201C5.23547 31.4193 6.54086 33.7417 8.31567 35.2595C8.41479 35.3442 8.52534 35.3846 8.63465 35.3846C8.83146 35.3846 9.02405 35.2535 9.13752 35.0138C9.31398 34.6409 9.23218 34.1463 8.95482 33.9091Z" fill="#4F4F4F"/>
<path d="M3.84638 24.6154C3.42161 24.6154 3.07715 24.9569 3.07715 25.3779V25.3913C3.07715 25.8124 3.42161 26.1538 3.84638 26.1538C4.27115 26.1538 4.61561 25.8124 4.61561 25.3913V25.3779C4.61561 24.9569 4.27115 24.6154 3.84638 24.6154Z" fill="#4F4F4F"/>
</svg>
