<svg width="40" height="28" viewBox="0 0 40 28" fill="none" xmlns="http://www.w3.org/2000/svg">
<path d="M38.3333 24H1.66667C0.75 24 0 23.2552 0 22.3448V1.65517C0 0.744828 0.75 0 1.66667 0H38.3333C39.25 0 40 0.744828 40 1.65517V22.3448C40 23.2552 39.25 24 38.3333 24ZM1.66667 1.65517V22.3448H38.3333V1.65517H1.66667Z" fill="#4F4F4F"/>
<path d="M27.1446 19.2H6.45498C5.54463 19.2 4.7998 18.4421 4.7998 17.5158V4.88423C4.7998 3.95791 5.54463 3.20002 6.45498 3.20002H27.1446C28.055 3.20002 28.7998 3.95791 28.7998 4.88423V17.5158C28.7998 18.4421 28.055 19.2 27.1446 19.2ZM6.45498 4.88423V17.5158H27.1446V4.88423H6.45498Z" fill="#4F4F4F"/>
<path d="M33.5999 11.2C31.8399 11.2 30.3999 9.76 30.3999 8C30.3999 6.24 31.8399 4.8 33.5999 4.8C35.3599 4.8 36.7999 6.24 36.7999 8C36.7999 9.76 35.3599 11.2 33.5999 11.2ZM33.5999 6.4C32.7199 6.4 31.9999 7.12 31.9999 8C31.9999 8.88 32.7199 9.6 33.5999 9.6C34.4799 9.6 35.1999 8.88 35.1999 8C35.1999 7.12 34.4799 6.4 33.5999 6.4Z" fill="#4F4F4F"/>
<path d="M32.7999 19.2C31.4399 19.2 30.3999 18.16 30.3999 16.8C30.3999 15.44 31.4399 14.4 32.7999 14.4C34.1599 14.4 35.1999 15.44 35.1999 16.8C35.1999 18.16 34.1599 19.2 32.7999 19.2ZM32.7999 16C32.3199 16 31.9999 16.32 31.9999 16.8C31.9999 17.28 32.3199 17.6 32.7999 17.6C33.2799 17.6 33.5999 17.28 33.5999 16.8C33.5999 16.32 33.2799 16 32.7999 16Z" fill="#4F4F4F"/>
<path d="M32.0003 27.2C30.2403 27.2 28.8003 25.76 28.8003 24V22.4H35.2003V24C35.2003 25.76 33.7603 27.2 32.0003 27.2ZM30.4003 24C30.4003 24.88 31.1203 25.6 32.0003 25.6C32.8803 25.6 33.6003 24.88 33.6003 24H30.4003Z" fill="#4F4F4F"/>
<path d="M7.9998 27.2C6.2398 27.2 4.7998 25.76 4.7998 24V22.4H11.1998V24C11.1998 25.76 9.75981 27.2 7.9998 27.2ZM6.3998 24C6.3998 24.88 7.1198 25.6 7.9998 25.6C8.87981 25.6 9.5998 24.88 9.5998 24H6.3998Z" fill="#4F4F4F"/>
<path d="M8.62684 16C8.49818 16 8.36953 15.92 8.24087 15.84C7.98355 15.6 7.91922 15.04 8.11221 14.72L9.27013 12.8C9.52745 12.4 9.46312 11.84 9.2058 11.44C8.81983 10.96 8.56251 10.32 8.56251 9.59998C8.56251 8.87998 8.7555 8.23998 9.2058 7.75998L10.1064 6.63998C10.3637 6.31998 10.7497 6.31998 11.007 6.63998C11.2643 6.95998 11.2643 7.43998 11.007 7.75998L10.1064 8.87998C9.97775 9.03998 9.84909 9.35998 9.84909 9.59998C9.84909 9.83998 9.91342 10.16 10.1064 10.32C10.814 11.2 10.9427 12.72 10.2994 13.76L9.14147 15.68C9.01282 15.92 8.81983 16 8.62684 16Z" fill="#4F4F4F"/>
<path d="M15.0267 16C14.8981 16 14.7694 15.92 14.6408 15.84C14.3835 15.6 14.3191 15.04 14.5121 14.72L15.67 12.8C15.9273 12.4 15.863 11.84 15.6057 11.44C14.7694 10.4 14.7694 8.71998 15.6057 7.75998L16.5063 6.63998C16.7636 6.31998 17.1496 6.31998 17.4069 6.63998C17.6642 6.95998 17.6642 7.43998 17.4069 7.75998L16.5063 8.87998C16.1847 9.27998 16.1847 9.91998 16.5063 10.32C17.2139 11.2 17.3426 12.72 16.6993 13.76L15.5414 15.68C15.4127 15.92 15.2197 16 15.0267 16Z" fill="#4F4F4F"/>
<path d="M21.7401 16C21.5471 16 21.3541 15.92 21.1611 15.84C20.7751 15.6 20.6786 15.04 20.9681 14.72L22.705 12.8C23.091 12.4 22.9945 11.84 22.6085 11.44C21.3541 10.4 21.3541 8.71998 22.6085 7.75998L23.9594 6.63998C24.3454 6.31998 24.9244 6.31998 25.3103 6.63998C25.6963 6.95998 25.6963 7.43998 25.3103 7.75998L23.9594 8.87998C23.4769 9.27998 23.4769 9.91998 23.9594 10.32C25.0208 11.2 25.2138 12.72 24.2489 13.76L22.512 15.68C22.319 15.92 22.0295 16 21.7401 16Z" fill="#4F4F4F"/>
</svg>
