<svg width="30" height="40" viewBox="0 0 30 40" fill="none" xmlns="http://www.w3.org/2000/svg">
<path d="M30 3.41151C30.0007 1.52719 28.4995 -0.000666093 26.648 2.17856e-07H3.35196C1.50052 -0.000666093 -0.000654465 1.52719 2.14053e-07 3.41151V36.5885C-0.000654465 38.4728 1.50052 40.0007 3.35196 40H26.648C28.4995 40.0007 30.0007 38.4728 30 36.5885V3.41151ZM28.324 3.37753V8.35821H10.8939V1.70576H26.6566C27.0965 1.69809 27.5211 1.871 27.8347 2.1855C28.1486 2.5 28.3247 2.92944 28.324 3.37753ZM3.34344 1.70576H9.21788V8.35821H1.67598V3.37753C1.67532 2.92944 1.85143 2.5 2.16535 2.1855C2.47894 1.871 2.9035 1.69809 3.34344 1.70576ZM26.6566 38.209H3.34344C2.90383 38.215 2.47992 38.0417 2.16666 37.7275C1.8534 37.4134 1.67663 36.9849 1.67598 36.5372V10.064H28.324V36.5372C28.3247 36.9853 28.1486 37.4147 27.8347 37.7292C27.5211 38.0437 27.0965 38.2166 26.6566 38.209Z" fill="#4F4F4F"/>
<path d="M15.8333 13.3333C9.85579 13.3333 5 18.1974 5 24.1667C5 30.1442 9.86411 35 15.8333 35C21.8026 35 26.6667 30.1362 26.6667 24.1667C26.6667 18.1974 21.8109 13.3333 15.8333 13.3333ZM15.8333 33.3623C10.7546 33.3623 6.63768 29.2454 6.63768 24.1667C6.63768 19.0883 10.7546 14.971 15.8333 14.971C20.9121 14.971 25.029 19.0883 25.029 24.1667C25.0219 29.2425 20.9089 33.3553 15.8333 33.3623Z" fill="#4F4F4F"/>
<path d="M15.0002 16.6667C11.3184 16.6667 8.3335 20.0243 8.3335 24.1667C8.3335 28.3087 11.3184 31.6667 15.0002 31.6667C18.682 31.6667 21.6668 28.3087 21.6668 24.1667C21.6616 20.0267 18.6798 16.6722 15.0002 16.6667ZM15.0002 29.8719C12.1948 29.8719 9.9208 27.3136 9.9208 24.1576C9.9208 21.0019 12.1948 18.4433 15.0002 18.4433C17.8055 18.4433 20.0795 21.0019 20.0795 24.1576C20.077 27.3122 17.8043 29.8691 15.0002 29.8719Z" fill="#4F4F4F"/>
<path d="M24.1665 6.66667C25.5474 6.66667 26.6665 5.92037 26.6665 5C26.6665 4.07941 25.5474 3.33334 24.1665 3.33334C22.786 3.33334 21.6665 4.07941 21.6665 5C21.6692 5.91968 22.787 6.66484 24.1665 6.66667ZM24.1665 4.50293C24.5784 4.50293 24.9121 4.72542 24.9121 5C24.9121 5.27458 24.5784 5.49708 24.1665 5.49708C23.7546 5.49708 23.4209 5.27458 23.4209 5C23.4209 4.8682 23.4994 4.74164 23.6392 4.64844C23.779 4.55501 23.9688 4.5027 24.1665 4.50293Z" fill="#4F4F4F"/>
<path d="M19.1668 6.66667C19.6265 6.66543 19.9989 6.31077 20.0002 5.87302V4.12699C20.0002 3.68862 19.6271 3.33334 19.1668 3.33334C18.7065 3.33334 18.3335 3.68862 18.3335 4.12699V5.87302C18.3348 6.31077 18.7072 6.66543 19.1668 6.66667Z" fill="#4F4F4F"/>
<path d="M15.8333 6.66667C16.293 6.66543 16.6654 6.31077 16.6667 5.87302V4.12699C16.6667 3.68862 16.2936 3.33334 15.8333 3.33334C15.373 3.33334 15 3.68862 15 4.12699V5.87302C15.0013 6.31077 15.3737 6.66543 15.8333 6.66667Z" fill="#4F4F4F"/>
</svg>
