<svg width="42" height="40" viewBox="0 0 42 40" fill="none" xmlns="http://www.w3.org/2000/svg">
<path d="M19.6662 24.7619C17.7891 25.9746 15.6295 26.6667 13.3335 26.6667H24.7621V24.7619H19.6662Z" fill="#4F4F4F"/>
<path d="M32.0458 4.64788C32.0309 4.64264 32.016 4.63805 32.0012 4.63379L15.5333 0.0298828C15.4351 0.00234595 15.3355 -0.00552173 15.2383 0.00365724C17.8128 0.507189 20.1227 1.7729 21.9302 3.55985L31.5388 6.24601C34.4445 7.24619 36.8181 9.22917 38.3496 11.7557L39.8295 11.976C40.2815 12.0432 40.5943 12.4693 40.528 12.9283C40.4679 13.3456 40.1144 13.6462 39.7106 13.6462C39.6705 13.6462 39.6301 13.6433 39.5894 13.637L39.2734 13.5902C39.906 15.1388 40.2502 16.8271 40.2502 18.5776V22.8655L41.1203 22.9114C41.5768 22.9353 41.9274 23.33 41.9038 23.7932C41.8809 24.2414 41.5154 24.5892 41.0783 24.5892C41.0637 24.5892 41.0492 24.5889 41.0347 24.5879L40.2502 24.5466V32.4542L41.0854 32.4621C41.5423 32.4667 41.9093 32.846 41.9048 33.3098C41.9006 33.7704 41.531 34.1412 41.0776 34.1412C41.075 34.1412 41.0721 34.1412 41.0696 34.1412L40.2502 34.1333V36.8054C40.2502 37.641 39.58 38.3209 38.7564 38.3209H27.4137C26.5901 38.3209 25.9203 37.641 25.9203 36.8054V33.996L25.085 33.9881C24.6282 33.9835 24.2611 33.6042 24.2656 33.1407C24.2698 32.6772 24.6443 32.3087 25.1005 32.309L25.9203 32.3169V25.672C25.9203 26.1355 25.55 26.5115 25.0928 26.5115H24.2656V36.8057C24.2656 38.5668 25.6779 40 27.414 40H38.7564C40.4925 40 41.9048 38.5671 41.9048 36.8057V18.5779C41.9048 12.2635 37.9428 6.66562 32.0458 4.64788Z" fill="#4F4F4F"/>
<path d="M26.6665 25.8613V24.0579L25.6646 24.0139C25.1395 23.9909 24.7357 23.6121 24.7632 23.1676C24.7904 22.7233 25.237 22.3795 25.7632 22.4049L26.6665 22.4443V15.581C26.6665 15.4583 26.6326 15.3422 26.5746 15.2381C26.3508 16.9681 25.7186 18.5956 24.7617 20.0507V26.6667H25.7141C26.2399 26.667 26.6665 26.3061 26.6665 25.8613Z" fill="#4F4F4F"/>
<path d="M26.6093 13.3333C26.647 13.1448 26.6665 12.9551 26.6665 12.7644C26.6665 12.3353 26.5693 11.9119 26.3852 11.4948L24.7617 11.4285C25.8079 12.0291 26.4332 12.6728 26.6093 13.3333Z" fill="#4F4F4F"/>
<path d="M24.7621 13.7806C24.7621 13.6308 24.7557 13.4814 24.7435 13.3334C24.4059 19.6956 19.4176 24.7619 13.3335 24.7619H19.6665C21.8033 23.5017 23.5734 21.6251 24.7621 19.3601V13.7806Z" fill="#4F4F4F"/>
<path d="M19.3946 4.20893C21.7936 5.51122 23.6823 7.6681 24.6677 10.2785L25.4309 11.1571C25.5077 11.2455 25.5811 11.3365 25.6529 11.4285C25.832 11.2426 26.0937 11.1451 26.3649 11.1901L26.6669 11.2406C26.0772 8.81295 24.8278 6.64797 23.1249 4.95564L19.0479 3.80949L19.3946 4.20893Z" fill="#4F4F4F"/>
<path d="M12.0041 25.8297C12.0041 25.3677 12.3639 24.9928 12.8081 24.9928C6.6321 24.9928 1.60756 19.7625 1.60756 13.3332C1.60756 6.90416 6.6321 1.67351 12.8081 1.67351C13.5316 1.67351 14.2392 1.74638 14.9251 1.88364L14.7091 1.62972C14.4731 1.35227 14.4401 0.946394 14.6285 0.632018C14.7644 0.404897 14.9926 0.265029 15.2381 0.241827C14.4508 0.0836591 13.6387 0 12.8081 0C5.7456 0 0 5.9813 0 13.3332C0 20.685 5.7456 26.6667 12.8081 26.6667C12.3639 26.6667 12.0041 26.2918 12.0041 25.8297Z" fill="#4F4F4F"/>
<path d="M12.3025 24.7619C11.8197 24.7619 11.4287 25.1884 11.4287 25.7143C11.4287 26.2401 11.8197 26.6667 12.3025 26.6667C14.7485 26.6667 17.0484 25.9746 19.0478 24.7619H12.3025Z" fill="#4F4F4F"/>
<path d="M25.839 12.0414L25.1682 11.9745C24.454 11.9031 23.9696 11.4929 24.0868 11.0584C24.1324 10.8896 24.2625 10.7429 24.4453 10.6295C24.3295 10.5411 24.2113 10.4535 24.0873 10.3685L22.8569 9.5238C23.6393 10.7603 24.0694 12.1025 24.0694 13.5047C24.0694 13.7165 24.0587 13.9265 24.0397 14.1352C24.0592 14.2713 24.0694 14.408 24.0694 14.5457V15.2381C24.0694 14.7973 24.6567 14.4404 25.3807 14.4404C25.9051 14.4404 26.3557 14.6279 26.5656 14.8983C26.6117 14.6435 26.646 14.3868 26.6665 14.128C26.5876 13.4044 26.3075 12.6993 25.839 12.0414Z" fill="#4F4F4F"/>
<path d="M13.4937 0.419301C13.2457 0.757129 13.2891 1.19329 13.5996 1.49108L13.8844 1.76394C15.3444 2.00239 16.7283 2.4238 18.0023 2.99972L17.5505 2.56707L22.8573 3.80952C20.5445 1.89528 17.5898 0.539402 14.2961 0C13.9728 0.0249333 13.6727 0.174884 13.4937 0.419301Z" fill="#4F4F4F"/>
<path d="M25.7624 13.3334C25.2099 13.3334 24.7617 13.8541 24.7617 14.4971V20.9524C25.767 18.8508 26.4313 16.5001 26.6665 14.0013C26.5063 13.6069 26.1625 13.3334 25.7624 13.3334Z" fill="#4F4F4F"/>
<path d="M13.3336 7.61905C10.1827 7.61905 7.61914 10.1823 7.61914 13.3333C7.61914 16.4843 10.1827 19.0476 13.3336 19.0476C16.4842 19.0476 19.0477 16.4843 19.0477 13.3333C19.0477 10.1823 16.4842 7.61905 13.3336 7.61905ZM13.3336 17.274C11.1607 17.274 9.39305 15.5063 9.39305 13.3333C9.39305 11.1604 11.1607 9.39266 13.3336 9.39266C15.5061 9.39266 17.2738 11.1604 17.2738 13.3333C17.2738 15.5063 15.5061 17.274 13.3336 17.274Z" fill="#4F4F4F"/>
<path d="M34.2943 11.9901C34.2296 12.3489 34.535 12.6825 34.9767 12.735L39.9999 13.3333C39.8766 13.0915 39.7422 12.854 39.5967 12.6217L35.0938 12.0853L39.5967 12.6217C39.4424 12.375 39.2758 12.1337 39.0979 11.8986L35.2108 11.4355C34.7701 11.3834 34.3593 11.6311 34.2943 11.9901Z" fill="#4F4F4F"/>
<path d="M39.2793 12.4873L38.5401 12.3601C38.6698 12.6597 38.7897 12.9653 38.8997 13.2768L39.1749 13.3241C39.2103 13.3303 39.2455 13.3333 39.2801 13.3333C39.6318 13.3333 39.9397 13.0304 39.9923 12.6099C40.05 12.1477 39.7776 11.7179 39.3836 11.6502L38.0952 11.4285C38.2539 11.7315 38.4025 12.042 38.5401 12.3601L39.2793 12.4873Z" fill="#4F4F4F"/>
<path d="M28.0587 10.654L26.7812 10.3371C26.812 10.6023 26.8372 10.8703 26.8566 11.1406L27.9757 11.4183C28.0037 11.4252 28.0317 11.4286 28.0593 11.4286C28.3057 11.4286 28.523 11.1591 28.5644 10.7795C28.6103 10.3573 28.4209 9.95901 28.1416 9.88975L26.6665 9.5238C26.7105 9.79176 26.749 10.0627 26.7812 10.3371L28.0587 10.654Z" fill="#4F4F4F"/>
<path d="M26.6665 11.4286C26.6219 11.1209 26.5639 10.8161 26.4931 10.5143L25.6019 10.4049L26.4931 10.5143C26.4191 10.2022 26.3308 9.89391 26.2296 9.58904L25.7927 9.53537C25.4 9.48754 25.0211 9.59111 24.7617 9.78862C25.2712 10.2686 25.6916 10.793 26.013 11.3484L26.6665 11.4286Z" fill="#4F4F4F"/>
<path d="M25.714 21.8802L26.6665 21.9284V20.9995L25.7635 20.9539C25.2368 20.9249 24.7902 21.3205 24.763 21.8324C24.7359 22.3439 25.1394 22.7804 25.6649 22.8068L26.6665 22.8572V21.9284L25.714 21.8802Z" fill="#4F4F4F"/>
<path d="M29.2575 24.4962L31.6205 24.7601C31.6332 24.7613 31.6459 24.7619 31.6586 24.7619C32.0411 24.7619 32.3607 24.116 32.3808 23.2825L28.5723 22.8572C28.5514 23.7175 28.8583 24.4512 29.2575 24.4962Z" fill="#4F4F4F"/>
<path d="M32.3798 22.8572C32.4005 21.9971 32.0938 21.2636 31.6944 21.2192L29.3314 20.9548C28.9311 20.9073 28.5919 21.5719 28.5713 22.432L32.3798 22.8572Z" fill="#4F4F4F"/>
<path d="M34.972 24.4957L37.3349 24.7595C37.3476 24.7613 37.3603 24.7619 37.373 24.7619C37.7554 24.7619 38.0751 24.1156 38.0952 23.2823L34.2866 22.8572C34.266 23.7173 34.5729 24.4506 34.972 24.4957Z" fill="#4F4F4F"/>
<path d="M40.9523 23.8342L40 23.786V24.7148L40.9032 24.7605C40.9199 24.7616 40.9367 24.7619 40.953 24.7619C41.4567 24.7619 41.877 24.3776 41.9034 23.8823C41.931 23.3705 41.527 22.9343 41.0017 22.9079L40 22.8572V23.786L40.9523 23.8342Z" fill="#4F4F4F"/>
<path d="M25.7141 33.3289L26.6665 33.3378V32.3898L25.723 32.381C25.198 32.3806 24.767 32.7966 24.7618 33.32C24.7569 33.8434 25.179 34.2716 25.7052 34.2768L26.6665 34.2857V33.3378L25.7141 33.3289Z" fill="#4F4F4F"/>
<path d="M29.2883 34.2292L31.6502 34.2857H31.6573C32.0538 34.2857 32.3771 33.4775 32.3808 32.4718L28.5713 32.381C28.5676 33.3923 28.8887 34.2199 29.2883 34.2292Z" fill="#4F4F4F"/>
<path d="M35.0024 34.2292L37.3646 34.2857H37.3717C37.7682 34.2857 38.0915 33.4775 38.0952 32.4718L34.2857 32.381C34.282 33.3916 34.6028 34.2199 35.0024 34.2292Z" fill="#4F4F4F"/>
<path d="M40.9522 33.3378L40 33.3289V34.2768L40.9432 34.2857H40.9525C41.4744 34.2857 41.8999 33.8674 41.9047 33.347C41.9096 32.8236 41.4874 32.395 40.9615 32.3902L40 32.381V33.3289L40.9522 33.3378Z" fill="#4F4F4F"/>
<path d="M30.557 12.7471C30.706 13.112 31.0604 13.3333 31.4345 13.3333C31.5527 13.3333 31.6729 13.311 31.7893 13.2644C32.2738 13.0699 32.5074 12.5228 32.3115 12.0429L32.3001 12.0146C32.1038 11.5343 31.552 11.3031 31.0675 11.4973C30.5829 11.6918 30.3493 12.2389 30.5456 12.7189L30.557 12.7471Z" fill="#4F4F4F"/>
</svg>
