<svg width="19" height="40" viewBox="0 0 19 40" fill="none" xmlns="http://www.w3.org/2000/svg">
<path d="M14.5918 28.0533V26.5867C15.3806 26.3689 15.9543 25.6849 16.0344 24.8667L17.9082 6.06667C17.9082 6.05533 17.9042 6.04467 17.9082 6.034C17.9121 6.02333 17.9082 6.012 17.9082 6C17.906 4.16 16.4224 2.66883 14.5918 2.66667H12.602V2C12.602 0.895417 11.7112 0 10.6122 0H7.95918C6.86024 0 5.96939 0.895417 5.96939 2V2.66667H3.97959C2.14898 2.66883 0.665421 4.16 0.663265 6C0.663265 6.012 0.669235 6.022 0.669898 6.034C0.670561 6.046 0.665255 6.05533 0.666581 6.06667L2.53699 24.8667C2.61791 25.6842 3.19138 26.3672 3.97959 26.5847V28.0513C1.69746 28.3842 0.00339923 30.3488 0 32.6667V38C0 39.1046 0.890848 40 1.9898 40H16.5816C17.6806 40 18.5714 39.1046 18.5714 38V32.6667C18.567 30.3496 16.8732 28.3861 14.5918 28.0533ZM7.29592 2C7.29592 1.63183 7.5929 1.33333 7.95918 1.33333H10.6122C10.9785 1.33333 11.2755 1.63183 11.2755 2V2.66667H7.29592V2ZM3.97959 4H14.5918C15.4348 4.001 16.1861 4.53483 16.4682 5.33333H2.10321C2.38535 4.53483 3.13658 4.001 3.97959 4ZM2.05944 6.66667H16.5153L15.7247 14.5787C14.1053 16.1369 11.5358 16.0807 9.98554 14.4531C9.9198 14.3841 9.85654 14.3128 9.79576 14.2393C8.0445 12.1277 4.99812 11.6676 2.70679 13.1687L2.05944 6.66667ZM3.85689 24.7333L2.86199 14.7407C4.48798 13.191 7.05598 13.2597 8.59766 14.894C8.65868 14.9587 8.71763 15.0254 8.77425 15.094C9.74544 16.2628 11.1601 16.9683 12.6736 17.0387C12.7552 17.0387 12.8354 17.044 12.917 17.044C13.838 17.0421 14.7433 16.8037 15.5469 16.3513L14.7145 24.7333C14.6804 25.0753 14.3932 25.3351 14.0513 25.3333H4.51684C4.17617 25.3333 3.89096 25.074 3.85689 24.7333ZM13.2653 26.6667V28H5.30612V26.6667H13.2653ZM17.2449 38C17.2449 38.3682 16.9479 38.6667 16.5816 38.6667H1.9898C1.62351 38.6667 1.32653 38.3682 1.32653 38V32.6667C1.32869 30.8267 2.81224 29.3355 4.64286 29.3333H13.9286C15.7592 29.3355 17.2427 30.8267 17.2449 32.6667V38Z" fill="#4F4F4F"/>
<path d="M9.28578 30C7.31337 30 5.71436 31.599 5.71436 33.5714C5.71668 35.5429 7.31436 37.1405 9.28578 37.1429C11.2582 37.1429 12.8572 35.5438 12.8572 33.5714C12.8572 31.599 11.2582 30 9.28578 30ZM9.28578 35.7143C8.1023 35.7143 7.14293 34.7549 7.14293 33.5714C7.14293 32.3879 8.1023 31.4286 9.28578 31.4286C10.4693 31.4286 11.4286 32.3879 11.4286 33.5714C11.4286 34.7549 10.4693 35.7143 9.28578 35.7143Z" fill="#4F4F4F"/>
<path d="M7.0285 17.5799C6.95637 17.4928 6.85495 17.4126 6.72854 17.3428C6.15631 17.0762 5.27252 17.0762 4.70029 17.3428C4.57388 17.4126 4.47247 17.4928 4.40034 17.5799C4.32035 17.6651 4.28107 17.7587 4.28607 17.8529C4.28357 17.9461 4.31696 18.0386 4.38462 18.1252C4.46854 18.2112 4.5746 18.2911 4.70029 18.3631C4.8392 18.4263 4.99864 18.477 5.17165 18.5132C5.51713 18.5908 5.91171 18.5908 6.25719 18.5132C6.43002 18.4769 6.58928 18.4261 6.72854 18.3631C7.13741 18.1574 7.25614 17.8473 7.0285 17.5799Z" fill="#4F4F4F"/>
<path d="M13.8714 18.9871C13.8 18.9299 13.7286 18.8586 13.6571 18.8143C13.5777 18.7604 13.4911 18.7176 13.4001 18.6872C13.3192 18.6458 13.2324 18.6164 13.143 18.6001C12.6724 18.5049 12.1852 18.6499 11.8433 18.9871C11.5817 19.2603 11.4337 19.6226 11.4291 20.0007C11.4243 20.1876 11.4636 20.3728 11.5434 20.5418C11.6158 20.7153 11.7173 20.875 11.8433 21.0144C11.9822 21.14 12.1416 21.2408 12.3146 21.3128C12.8455 21.5424 13.4631 21.4241 13.8714 21.0144C13.9974 20.875 14.0988 20.7153 14.1713 20.5418C14.2506 20.3726 14.2897 20.1874 14.2856 20.0007C14.2804 19.6227 14.1324 19.2606 13.8714 18.9871Z" fill="#4F4F4F"/>
</svg>
